<svg width="80" height="115" viewBox="0 0 80 115" fill="none" xmlns="http://www.w3.org/2000/svg">
<g opacity="0.3">
<mask id="mask0" style="mask-type:alpha" maskUnits="userSpaceOnUse" x="8" y="0" width="12" height="11">
<path d="M13.7905 10.425C16.6781 10.425 19.0189 8.09121 19.0189 5.21245C19.0189 2.33368 16.6781 0 13.7905 0C10.903 0 8.56213 2.33368 8.56213 5.21245C8.56213 8.09121 10.903 10.425 13.7905 10.425Z" fill="url(#paint0_linear)"/>
</mask>
<g mask="url(#mask0)">
<path d="M13.7905 10.425C16.6781 10.425 19.0189 8.09121 19.0189 5.21245C19.0189 2.33368 16.6781 0 13.7905 0C10.903 0 8.56213 2.33368 8.56213 5.21245C8.56213 8.09121 10.903 10.425 13.7905 10.425Z" fill="url(#paint1_linear)"/>
</g>
<mask id="mask1" style="mask-type:alpha" maskUnits="userSpaceOnUse" x="38" y="0" width="12" height="11">
<path d="M44.0716 10.425C46.9592 10.425 49.3 8.09121 49.3 5.21245C49.3 2.33368 46.9592 0 44.0716 0C41.184 0 38.8432 2.33368 38.8432 5.21245C38.8432 8.09121 41.184 10.425 44.0716 10.425Z" fill="url(#paint2_linear)"/>
</mask>
<g mask="url(#mask1)">
<path d="M44.0716 10.425C46.9592 10.425 49.3 8.09121 49.3 5.21245C49.3 2.33368 46.9592 0 44.0716 0C41.184 0 38.8432 2.33368 38.8432 5.21245C38.8432 8.09121 41.184 10.425 44.0716 10.425Z" fill="url(#paint3_linear)"/>
</g>
<mask id="mask2" style="mask-type:alpha" maskUnits="userSpaceOnUse" x="69" y="0" width="11" height="11">
<path d="M74.3526 10.425C77.2402 10.425 79.581 8.09121 79.581 5.21245C79.581 2.33368 77.2402 0 74.3526 0C71.4651 0 69.1243 2.33368 69.1243 5.21245C69.1243 8.09121 71.4651 10.425 74.3526 10.425Z" fill="url(#paint4_linear)"/>
</mask>
<g mask="url(#mask2)">
<path d="M74.3526 10.425C77.2402 10.425 79.581 8.09121 79.581 5.21245C79.581 2.33368 77.2402 0 74.3526 0C71.4651 0 69.1243 2.33368 69.1243 5.21245C69.1243 8.09121 71.4651 10.425 74.3526 10.425Z" fill="url(#paint5_linear)"/>
</g>
<mask id="mask3" style="mask-type:alpha" maskUnits="userSpaceOnUse" x="8" y="26" width="12" height="11">
<path d="M13.7905 36.5958C16.6781 36.5958 19.0189 34.2621 19.0189 31.3834C19.0189 28.5046 16.6781 26.171 13.7905 26.171C10.903 26.171 8.56213 28.5046 8.56213 31.3834C8.56213 34.2621 10.903 36.5958 13.7905 36.5958Z" fill="url(#paint6_linear)"/>
</mask>
<g mask="url(#mask3)">
<path d="M13.7905 36.5958C16.6781 36.5958 19.0189 34.2621 19.0189 31.3834C19.0189 28.5046 16.6781 26.171 13.7905 26.171C10.903 26.171 8.56213 28.5046 8.56213 31.3834C8.56213 34.2621 10.903 36.5958 13.7905 36.5958Z" fill="url(#paint7_linear)"/>
</g>
<mask id="mask4" style="mask-type:alpha" maskUnits="userSpaceOnUse" x="38" y="26" width="12" height="11">
<path d="M44.0716 36.5958C46.9592 36.5958 49.3 34.2621 49.3 31.3834C49.3 28.5046 46.9592 26.171 44.0716 26.171C41.184 26.171 38.8432 28.5046 38.8432 31.3834C38.8432 34.2621 41.184 36.5958 44.0716 36.5958Z" fill="url(#paint8_linear)"/>
</mask>
<g mask="url(#mask4)">
<path d="M44.0716 36.5958C46.9592 36.5958 49.3 34.2621 49.3 31.3834C49.3 28.5046 46.9592 26.171 44.0716 26.171C41.184 26.171 38.8432 28.5046 38.8432 31.3834C38.8432 34.2621 41.184 36.5958 44.0716 36.5958Z" fill="url(#paint9_linear)"/>
</g>
<mask id="mask5" style="mask-type:alpha" maskUnits="userSpaceOnUse" x="69" y="26" width="11" height="11">
<path d="M74.3526 36.5958C77.2402 36.5958 79.581 34.2621 79.581 31.3834C79.581 28.5046 77.2402 26.171 74.3526 26.171C71.4651 26.171 69.1243 28.5046 69.1243 31.3834C69.1243 34.2621 71.4651 36.5958 74.3526 36.5958Z" fill="url(#paint10_linear)"/>
</mask>
<g mask="url(#mask5)">
<path d="M74.3526 36.5958C77.2402 36.5958 79.581 34.2621 79.581 31.3834C79.581 28.5046 77.2402 26.171 74.3526 26.171C71.4651 26.171 69.1243 28.5046 69.1243 31.3834C69.1243 34.2621 71.4651 36.5958 74.3526 36.5958Z" fill="url(#paint11_linear)"/>
</g>
<mask id="mask6" style="mask-type:alpha" maskUnits="userSpaceOnUse" x="8" y="52" width="12" height="11">
<path d="M13.7905 62.7125C16.6781 62.7125 19.0189 60.3788 19.0189 57.5C19.0189 54.6212 16.6781 52.2875 13.7905 52.2875C10.903 52.2875 8.56213 54.6212 8.56213 57.5C8.56213 60.3788 10.903 62.7125 13.7905 62.7125Z" fill="url(#paint12_linear)"/>
</mask>
<g mask="url(#mask6)">
<path d="M13.7905 62.7125C16.6781 62.7125 19.0189 60.3788 19.0189 57.5C19.0189 54.6212 16.6781 52.2875 13.7905 52.2875C10.903 52.2875 8.56213 54.6212 8.56213 57.5C8.56213 60.3788 10.903 62.7125 13.7905 62.7125Z" fill="url(#paint13_linear)"/>
</g>
<mask id="mask7" style="mask-type:alpha" maskUnits="userSpaceOnUse" x="38" y="52" width="12" height="11">
<path d="M44.0716 62.7125C46.9592 62.7125 49.3 60.3788 49.3 57.5C49.3 54.6212 46.9592 52.2875 44.0716 52.2875C41.184 52.2875 38.8432 54.6212 38.8432 57.5C38.8432 60.3788 41.184 62.7125 44.0716 62.7125Z" fill="url(#paint14_linear)"/>
</mask>
<g mask="url(#mask7)">
<path d="M44.0716 62.7125C46.9592 62.7125 49.3 60.3788 49.3 57.5C49.3 54.6212 46.9592 52.2875 44.0716 52.2875C41.184 52.2875 38.8432 54.6212 38.8432 57.5C38.8432 60.3788 41.184 62.7125 44.0716 62.7125Z" fill="url(#paint15_linear)"/>
</g>
<mask id="mask8" style="mask-type:alpha" maskUnits="userSpaceOnUse" x="69" y="52" width="11" height="11">
<path d="M74.3526 62.7125C77.2402 62.7125 79.581 60.3788 79.581 57.5C79.581 54.6212 77.2402 52.2875 74.3526 52.2875C71.4651 52.2875 69.1243 54.6212 69.1243 57.5C69.1243 60.3788 71.4651 62.7125 74.3526 62.7125Z" fill="url(#paint16_linear)"/>
</mask>
<g mask="url(#mask8)">
<path d="M74.3526 62.7125C77.2402 62.7125 79.581 60.3788 79.581 57.5C79.581 54.6212 77.2402 52.2875 74.3526 52.2875C71.4651 52.2875 69.1243 54.6212 69.1243 57.5C69.1243 60.3788 71.4651 62.7125 74.3526 62.7125Z" fill="url(#paint17_linear)"/>
</g>
<mask id="mask9" style="mask-type:alpha" maskUnits="userSpaceOnUse" x="8" y="78" width="12" height="11">
<path d="M13.7905 88.8834C16.6781 88.8834 19.0189 86.5496 19.0189 83.6709C19.0189 80.7921 16.6781 78.4584 13.7905 78.4584C10.903 78.4584 8.56213 80.7921 8.56213 83.6709C8.56213 86.5496 10.903 88.8834 13.7905 88.8834Z" fill="url(#paint18_linear)"/>
</mask>
<g mask="url(#mask9)">
<path d="M13.7905 88.8834C16.6781 88.8834 19.0189 86.5496 19.0189 83.6709C19.0189 80.7921 16.6781 78.4584 13.7905 78.4584C10.903 78.4584 8.56213 80.7921 8.56213 83.6709C8.56213 86.5496 10.903 88.8834 13.7905 88.8834Z" fill="url(#paint19_linear)"/>
</g>
<mask id="mask10" style="mask-type:alpha" maskUnits="userSpaceOnUse" x="38" y="78" width="12" height="11">
<path d="M44.0716 88.8834C46.9592 88.8834 49.3 86.5496 49.3 83.6709C49.3 80.7921 46.9592 78.4584 44.0716 78.4584C41.184 78.4584 38.8432 80.7921 38.8432 83.6709C38.8432 86.5496 41.184 88.8834 44.0716 88.8834Z" fill="url(#paint20_linear)"/>
</mask>
<g mask="url(#mask10)">
<path d="M44.0716 88.8834C46.9592 88.8834 49.3 86.5496 49.3 83.6709C49.3 80.7921 46.9592 78.4584 44.0716 78.4584C41.184 78.4584 38.8432 80.7921 38.8432 83.6709C38.8432 86.5496 41.184 88.8834 44.0716 88.8834Z" fill="url(#paint21_linear)"/>
</g>
<mask id="mask11" style="mask-type:alpha" maskUnits="userSpaceOnUse" x="69" y="78" width="11" height="11">
<path d="M74.3526 88.8834C77.2402 88.8834 79.581 86.5496 79.581 83.6709C79.581 80.7921 77.2402 78.4584 74.3526 78.4584C71.4651 78.4584 69.1243 80.7921 69.1243 83.6709C69.1243 86.5496 71.4651 88.8834 74.3526 88.8834Z" fill="url(#paint22_linear)"/>
</mask>
<g mask="url(#mask11)">
<path d="M74.3526 88.8834C77.2402 88.8834 79.581 86.5496 79.581 83.6709C79.581 80.7921 77.2402 78.4584 74.3526 78.4584C71.4651 78.4584 69.1243 80.7921 69.1243 83.6709C69.1243 86.5496 71.4651 88.8834 74.3526 88.8834Z" fill="url(#paint23_linear)"/>
</g>
<mask id="mask12" style="mask-type:alpha" maskUnits="userSpaceOnUse" x="8" y="104" width="12" height="11">
<path d="M13.7905 115C16.6781 115 19.0189 112.666 19.0189 109.788C19.0189 106.909 16.6781 104.575 13.7905 104.575C10.903 104.575 8.56213 106.909 8.56213 109.788C8.56213 112.666 10.903 115 13.7905 115Z" fill="url(#paint24_linear)"/>
</mask>
<g mask="url(#mask12)">
<path d="M13.7905 115C16.6781 115 19.0189 112.666 19.0189 109.788C19.0189 106.909 16.6781 104.575 13.7905 104.575C10.903 104.575 8.56213 106.909 8.56213 109.788C8.56213 112.666 10.903 115 13.7905 115Z" fill="url(#paint25_linear)"/>
</g>
<mask id="mask13" style="mask-type:alpha" maskUnits="userSpaceOnUse" x="38" y="104" width="12" height="11">
<path d="M44.0716 115C46.9592 115 49.3 112.666 49.3 109.788C49.3 106.909 46.9592 104.575 44.0716 104.575C41.184 104.575 38.8432 106.909 38.8432 109.788C38.8432 112.666 41.184 115 44.0716 115Z" fill="url(#paint26_linear)"/>
</mask>
<g mask="url(#mask13)">
<path d="M44.0716 115C46.9592 115 49.3 112.666 49.3 109.788C49.3 106.909 46.9592 104.575 44.0716 104.575C41.184 104.575 38.8432 106.909 38.8432 109.788C38.8432 112.666 41.184 115 44.0716 115Z" fill="url(#paint27_linear)"/>
</g>
<mask id="mask14" style="mask-type:alpha" maskUnits="userSpaceOnUse" x="69" y="104" width="11" height="11">
<path d="M74.3526 115C77.2402 115 79.581 112.666 79.581 109.788C79.581 106.909 77.2402 104.575 74.3526 104.575C71.4651 104.575 69.1243 106.909 69.1243 109.788C69.1243 112.666 71.4651 115 74.3526 115Z" fill="url(#paint28_linear)"/>
</mask>
<g mask="url(#mask14)">
<path d="M74.3526 115C77.2402 115 79.581 112.666 79.581 109.788C79.581 106.909 77.2402 104.575 74.3526 104.575C71.4651 104.575 69.1243 106.909 69.1243 109.788C69.1243 112.666 71.4651 115 74.3526 115Z" fill="url(#paint29_linear)"/>
</g>
</g>
<defs>
<linearGradient id="paint0_linear" x1="55.4049" y1="110.551" x2="-15.9967" y2="-71.2526" gradientUnits="userSpaceOnUse">
<stop/>
<stop offset="1" stop-color="white"/>
</linearGradient>
<linearGradient id="paint1_linear" x1="55.4049" y1="110.551" x2="-15.9967" y2="-71.2526" gradientUnits="userSpaceOnUse">
<stop stop-color="#97C3F9"/>
<stop offset="1" stop-color="#93C1F9"/>
</linearGradient>
<linearGradient id="paint2_linear" x1="81.6091" y1="100.259" x2="10.2075" y2="-81.5444" gradientUnits="userSpaceOnUse">
<stop/>
<stop offset="1" stop-color="white"/>
</linearGradient>
<linearGradient id="paint3_linear" x1="81.6091" y1="100.259" x2="10.2075" y2="-81.5444" gradientUnits="userSpaceOnUse">
<stop stop-color="#97C3F9"/>
<stop offset="1" stop-color="#93C1F9"/>
</linearGradient>
<linearGradient id="paint4_linear" x1="107.813" y1="89.9679" x2="36.4119" y2="-91.8359" gradientUnits="userSpaceOnUse">
<stop/>
<stop offset="1" stop-color="white"/>
</linearGradient>
<linearGradient id="paint5_linear" x1="107.813" y1="89.9679" x2="36.4119" y2="-91.8359" gradientUnits="userSpaceOnUse">
<stop stop-color="#97C3F9"/>
<stop offset="1" stop-color="#93C1F9"/>
</linearGradient>
<linearGradient id="paint6_linear" x1="46.4624" y1="114.062" x2="-24.9379" y2="-67.7403" gradientUnits="userSpaceOnUse">
<stop/>
<stop offset="1" stop-color="white"/>
</linearGradient>
<linearGradient id="paint7_linear" x1="46.4624" y1="114.062" x2="-24.9379" y2="-67.7403" gradientUnits="userSpaceOnUse">
<stop stop-color="#97C3F9"/>
<stop offset="1" stop-color="#93C1F9"/>
</linearGradient>
<linearGradient id="paint8_linear" x1="72.6667" y1="103.771" x2="1.26634" y2="-78.0318" gradientUnits="userSpaceOnUse">
<stop/>
<stop offset="1" stop-color="white"/>
</linearGradient>
<linearGradient id="paint9_linear" x1="72.6667" y1="103.771" x2="1.26634" y2="-78.0318" gradientUnits="userSpaceOnUse">
<stop stop-color="#97C3F9"/>
<stop offset="1" stop-color="#93C1F9"/>
</linearGradient>
<linearGradient id="paint10_linear" x1="98.8711" y1="93.4794" x2="27.4707" y2="-88.3231" gradientUnits="userSpaceOnUse">
<stop/>
<stop offset="1" stop-color="white"/>
</linearGradient>
<linearGradient id="paint11_linear" x1="98.8711" y1="93.4794" x2="27.4707" y2="-88.3231" gradientUnits="userSpaceOnUse">
<stop stop-color="#97C3F9"/>
<stop offset="1" stop-color="#93C1F9"/>
</linearGradient>
<linearGradient id="paint12_linear" x1="37.5201" y1="117.575" x2="-33.8815" y2="-64.2288" gradientUnits="userSpaceOnUse">
<stop/>
<stop offset="1" stop-color="white"/>
</linearGradient>
<linearGradient id="paint13_linear" x1="37.5201" y1="117.575" x2="-33.8815" y2="-64.2288" gradientUnits="userSpaceOnUse">
<stop stop-color="#97C3F9"/>
<stop offset="1" stop-color="#93C1F9"/>
</linearGradient>
<linearGradient id="paint14_linear" x1="63.7243" y1="107.283" x2="-7.67728" y2="-74.5205" gradientUnits="userSpaceOnUse">
<stop/>
<stop offset="1" stop-color="white"/>
</linearGradient>
<linearGradient id="paint15_linear" x1="63.7243" y1="107.283" x2="-7.67728" y2="-74.5205" gradientUnits="userSpaceOnUse">
<stop stop-color="#97C3F9"/>
<stop offset="1" stop-color="#93C1F9"/>
</linearGradient>
<linearGradient id="paint16_linear" x1="89.9287" y1="96.9919" x2="18.5271" y2="-84.812" gradientUnits="userSpaceOnUse">
<stop/>
<stop offset="1" stop-color="white"/>
</linearGradient>
<linearGradient id="paint17_linear" x1="89.9287" y1="96.9919" x2="18.5271" y2="-84.812" gradientUnits="userSpaceOnUse">
<stop stop-color="#97C3F9"/>
<stop offset="1" stop-color="#93C1F9"/>
</linearGradient>
<linearGradient id="paint18_linear" x1="28.5777" y1="121.087" x2="-42.8239" y2="-60.7168" gradientUnits="userSpaceOnUse">
<stop/>
<stop offset="1" stop-color="white"/>
</linearGradient>
<linearGradient id="paint19_linear" x1="28.5777" y1="121.087" x2="-42.8239" y2="-60.7168" gradientUnits="userSpaceOnUse">
<stop stop-color="#97C3F9"/>
<stop offset="1" stop-color="#93C1F9"/>
</linearGradient>
<linearGradient id="paint20_linear" x1="54.782" y1="110.795" x2="-16.6196" y2="-71.0084" gradientUnits="userSpaceOnUse">
<stop/>
<stop offset="1" stop-color="white"/>
</linearGradient>
<linearGradient id="paint21_linear" x1="54.782" y1="110.795" x2="-16.6196" y2="-71.0084" gradientUnits="userSpaceOnUse">
<stop stop-color="#97C3F9"/>
<stop offset="1" stop-color="#93C1F9"/>
</linearGradient>
<linearGradient id="paint22_linear" x1="80.9863" y1="100.504" x2="9.58471" y2="-81.3" gradientUnits="userSpaceOnUse">
<stop/>
<stop offset="1" stop-color="white"/>
</linearGradient>
<linearGradient id="paint23_linear" x1="80.9863" y1="100.504" x2="9.58471" y2="-81.3" gradientUnits="userSpaceOnUse">
<stop stop-color="#97C3F9"/>
<stop offset="1" stop-color="#93C1F9"/>
</linearGradient>
<linearGradient id="paint24_linear" x1="19.6353" y1="124.599" x2="-51.7663" y2="-57.2047" gradientUnits="userSpaceOnUse">
<stop/>
<stop offset="1" stop-color="white"/>
</linearGradient>
<linearGradient id="paint25_linear" x1="19.6353" y1="124.599" x2="-51.7663" y2="-57.2047" gradientUnits="userSpaceOnUse">
<stop stop-color="#97C3F9"/>
<stop offset="1" stop-color="#93C1F9"/>
</linearGradient>
<linearGradient id="paint26_linear" x1="45.8397" y1="114.307" x2="-25.562" y2="-67.4964" gradientUnits="userSpaceOnUse">
<stop/>
<stop offset="1" stop-color="white"/>
</linearGradient>
<linearGradient id="paint27_linear" x1="45.8397" y1="114.307" x2="-25.562" y2="-67.4964" gradientUnits="userSpaceOnUse">
<stop stop-color="#97C3F9"/>
<stop offset="1" stop-color="#93C1F9"/>
</linearGradient>
<linearGradient id="paint28_linear" x1="72.044" y1="104.016" x2="0.642371" y2="-77.7879" gradientUnits="userSpaceOnUse">
<stop/>
<stop offset="1" stop-color="white"/>
</linearGradient>
<linearGradient id="paint29_linear" x1="72.044" y1="104.016" x2="0.642371" y2="-77.7879" gradientUnits="userSpaceOnUse">
<stop stop-color="#97C3F9"/>
<stop offset="1" stop-color="#93C1F9"/>
</linearGradient>
</defs>
</svg>
