<svg width="783" height="968" viewBox="0 0 783 968" fill="none" xmlns="http://www.w3.org/2000/svg">
<g opacity="0.6" clip-path="url(#clip0_63:2670)">
<path d="M-224.953 356.268C-163.577 285.781 -42.3711 376.97 133.25 337.061C285.359 302.479 294.11 210.622 415.642 215.177C504.431 218.487 601.183 269.755 654.356 359.072C712.997 457.551 691.68 557.81 685.696 582.139C658.983 691.263 579.698 748.826 551.728 768.487C436.488 849.44 307.173 835.254 245.136 828.479C12.0999 802.957 -237.386 636.583 -248.495 455.701C-249.971 432.021 -252.658 388.098 -224.953 356.268Z" fill="url(#paint0_linear_63:2670)"/>
</g>
<defs>
<linearGradient id="paint0_linear_63:2670" x1="359.823" y1="69.8268" x2="125.583" y2="775.635" gradientUnits="userSpaceOnUse">
<stop stop-color="#F3F7FF"/>
<stop offset="1" stop-color="#DEEEFE"/>
</linearGradient>
<clipPath id="clip0_63:2670">
<rect width="937.962" height="671.376" fill="white" transform="translate(-90.4224) rotate(21.4558)"/>
</clipPath>
</defs>
</svg>
