<svg width="1072" height="968" viewBox="0 0 1072 968" fill="none" xmlns="http://www.w3.org/2000/svg">
<g opacity="0.6" clip-path="url(#clip0_23_2)">
<path d="M64.0467 356.268C125.423 285.781 246.629 376.97 422.25 337.061C574.359 302.479 583.11 210.622 704.642 215.177C793.431 218.487 890.183 269.755 943.356 359.072C1002 457.551 980.68 557.81 974.696 582.139C947.983 691.263 868.698 748.826 840.728 768.487C725.488 849.44 596.173 835.254 534.136 828.479C301.1 802.957 51.6139 636.583 40.5053 455.701C39.0289 432.021 36.342 388.098 64.0467 356.268Z" fill="url(#paint0_linear_23_2)"/>
</g>
<defs>
<linearGradient id="paint0_linear_23_2" x1="648.823" y1="69.8268" x2="414.583" y2="775.635" gradientUnits="userSpaceOnUse">
<stop stop-color="#F3F7FF"/>
<stop offset="1" stop-color="#DEEEFE"/>
</linearGradient>
<clipPath id="clip0_23_2">
<rect width="937.962" height="671.376" fill="white" transform="translate(198.578) rotate(21.4558)"/>
</clipPath>
</defs>
</svg>
