<svg width="167" height="49" viewBox="0 0 167 49" fill="none" xmlns="http://www.w3.org/2000/svg">
<g filter="url(#filter0_d_366:8)">
<path d="M62.856 15.456H57.288V12.912H71.568V15.456H65.976V30H62.856V15.456ZM78.1209 17.592C78.5849 17.592 78.9849 17.656 79.3209 17.784L79.2969 20.52C78.7849 20.312 78.2569 20.208 77.7129 20.208C76.6889 20.208 75.9049 20.504 75.3609 21.096C74.8329 21.688 74.5689 22.472 74.5689 23.448V30H71.5929V21.312C71.5929 20.032 71.5289 18.888 71.4009 17.88H74.2089L74.4489 20.016C74.7529 19.232 75.2329 18.632 75.8889 18.216C76.5449 17.8 77.2889 17.592 78.1209 17.592ZM92.349 17.88V30H89.397V28.056C89.029 28.728 88.501 29.256 87.813 29.64C87.125 30.008 86.341 30.192 85.461 30.192C84.405 30.192 83.469 29.936 82.653 29.424C81.837 28.912 81.205 28.184 80.757 27.24C80.309 26.296 80.085 25.2 80.085 23.952C80.085 22.704 80.309 21.6 80.757 20.64C81.221 19.664 81.861 18.912 82.677 18.384C83.493 17.84 84.421 17.568 85.461 17.568C86.341 17.568 87.125 17.76 87.813 18.144C88.501 18.512 89.029 19.032 89.397 19.704V17.88H92.349ZM86.277 27.84C87.269 27.84 88.037 27.496 88.581 26.808C89.125 26.12 89.397 25.152 89.397 23.904C89.397 22.624 89.125 21.64 88.581 20.952C88.037 20.264 87.261 19.92 86.253 19.92C85.261 19.92 84.485 20.28 83.925 21C83.381 21.704 83.109 22.688 83.109 23.952C83.109 25.2 83.381 26.16 83.925 26.832C84.485 27.504 85.269 27.84 86.277 27.84ZM101.352 14.712C100.056 14.712 99.4084 15.424 99.4084 16.848V17.88H102.12V20.136H99.4084V30H96.4084V20.136H94.1044V17.88H96.4084V16.704C96.4084 15.264 96.7684 14.16 97.4884 13.392C98.2244 12.608 99.2724 12.216 100.632 12.216C101.384 12.216 102.016 12.312 102.528 12.504V14.88C102.08 14.768 101.688 14.712 101.352 14.712ZM115.904 17.88V30H112.952V28.056C112.584 28.728 112.056 29.256 111.368 29.64C110.68 30.008 109.896 30.192 109.016 30.192C107.96 30.192 107.024 29.936 106.208 29.424C105.392 28.912 104.76 28.184 104.312 27.24C103.864 26.296 103.64 25.2 103.64 23.952C103.64 22.704 103.864 21.6 104.312 20.64C104.776 19.664 105.416 18.912 106.232 18.384C107.048 17.84 107.976 17.568 109.016 17.568C109.896 17.568 110.68 17.76 111.368 18.144C112.056 18.512 112.584 19.032 112.952 19.704V17.88H115.904ZM109.832 27.84C110.824 27.84 111.592 27.496 112.136 26.808C112.68 26.12 112.952 25.152 112.952 23.904C112.952 22.624 112.68 21.64 112.136 20.952C111.592 20.264 110.816 19.92 109.808 19.92C108.816 19.92 108.04 20.28 107.48 21C106.936 21.704 106.664 22.688 106.664 23.952C106.664 25.2 106.936 26.16 107.48 26.832C108.04 27.504 108.824 27.84 109.832 27.84ZM119.171 12.336H122.147V30H119.171V12.336ZM137.141 17.88V29.616C137.141 31.504 136.621 32.936 135.581 33.912C134.541 34.888 133.013 35.376 130.997 35.376C129.125 35.376 127.477 34.984 126.053 34.2L126.533 31.92C128.005 32.688 129.469 33.072 130.925 33.072C133.085 33.072 134.165 32 134.165 29.856V27.456C133.797 28.112 133.261 28.648 132.557 29.064C131.853 29.464 131.061 29.664 130.181 29.664C129.125 29.664 128.181 29.416 127.349 28.92C126.533 28.408 125.893 27.696 125.429 26.784C124.981 25.856 124.757 24.8 124.757 23.616C124.757 22.432 124.981 21.384 125.429 20.472C125.893 19.544 126.533 18.832 127.349 18.336C128.181 17.824 129.125 17.568 130.181 17.568C131.077 17.568 131.869 17.76 132.557 18.144C133.261 18.512 133.797 19.032 134.165 19.704V17.88H137.141ZM130.973 27.312C131.965 27.312 132.741 26.984 133.301 26.328C133.877 25.672 134.165 24.768 134.165 23.616C134.165 22.464 133.885 21.56 133.325 20.904C132.765 20.248 131.981 19.92 130.973 19.92C129.981 19.92 129.197 20.248 128.621 20.904C128.061 21.56 127.781 22.464 127.781 23.616C127.781 24.768 128.061 25.672 128.621 26.328C129.197 26.984 129.981 27.312 130.973 27.312ZM151.974 17.88V30H149.022V28.056C148.654 28.728 148.126 29.256 147.438 29.64C146.75 30.008 145.966 30.192 145.086 30.192C144.03 30.192 143.094 29.936 142.278 29.424C141.462 28.912 140.83 28.184 140.382 27.24C139.934 26.296 139.71 25.2 139.71 23.952C139.71 22.704 139.934 21.6 140.382 20.64C140.846 19.664 141.486 18.912 142.302 18.384C143.118 17.84 144.046 17.568 145.086 17.568C145.966 17.568 146.75 17.76 147.438 18.144C148.126 18.512 148.654 19.032 149.022 19.704V17.88H151.974ZM145.902 27.84C146.894 27.84 147.662 27.496 148.206 26.808C148.75 26.12 149.022 25.152 149.022 23.904C149.022 22.624 148.75 21.64 148.206 20.952C147.662 20.264 146.886 19.92 145.878 19.92C144.886 19.92 144.11 20.28 143.55 21C143.006 21.704 142.734 22.688 142.734 23.952C142.734 25.2 143.006 26.16 143.55 26.832C144.11 27.504 144.894 27.84 145.902 27.84ZM161.769 17.592C162.233 17.592 162.633 17.656 162.969 17.784L162.945 20.52C162.433 20.312 161.905 20.208 161.361 20.208C160.337 20.208 159.553 20.504 159.009 21.096C158.481 21.688 158.217 22.472 158.217 23.448V30H155.241V21.312C155.241 20.032 155.177 18.888 155.049 17.88H157.857L158.097 20.016C158.401 19.232 158.881 18.632 159.537 18.216C160.193 17.8 160.937 17.592 161.769 17.592Z" fill="white"/>
<circle cx="24.5" cy="20.5" r="20.5" fill="white"/>
<path d="M23.344 15.244H17.312V12.488H32.782V15.244H26.724V31H23.344V15.244Z" fill="#5B9BF3"/>
</g>
<defs>
<filter id="filter0_d_366:8" x="0" y="0" width="166.969" height="49" filterUnits="userSpaceOnUse" color-interpolation-filters="sRGB">
<feFlood flood-opacity="0" result="BackgroundImageFix"/>
<feColorMatrix in="SourceAlpha" type="matrix" values="0 0 0 0 0 0 0 0 0 0 0 0 0 0 0 0 0 0 127 0" result="hardAlpha"/>
<feOffset dy="4"/>
<feGaussianBlur stdDeviation="2"/>
<feComposite in2="hardAlpha" operator="out"/>
<feColorMatrix type="matrix" values="0 0 0 0 0 0 0 0 0 0 0 0 0 0 0 0 0 0 0.25 0"/>
<feBlend mode="normal" in2="BackgroundImageFix" result="effect1_dropShadow_366:8"/>
<feBlend mode="normal" in="SourceGraphic" in2="effect1_dropShadow_366:8" result="shape"/>
</filter>
</defs>
</svg>
